<mxfile host="65bd71144e">
    <diagram id="H_KzIprwaXjR-_fSG_8s" name="Page-1">
        <mxGraphModel dx="2962" dy="2304" grid="0" gridSize="10" guides="1" tooltips="1" connect="1" arrows="1" fold="1" page="0" pageScale="1" pageWidth="850" pageHeight="1100" background="#ffffff" math="0" shadow="0">
            <root>
                <mxCell id="0"/>
                <mxCell id="1" parent="0"/>
                <mxCell id="34" value="" style="rounded=0;whiteSpace=wrap;html=1;fontSize=15;fillColor=#ffe6cc;strokeColor=#d79b00;" parent="1" vertex="1">
                    <mxGeometry x="-200" y="-995" width="120" height="55" as="geometry"/>
                </mxCell>
                <mxCell id="4" value="&lt;pre style=&quot;background-color: rgb(43, 43, 43); color: rgb(169, 183, 198); font-family: &amp;quot;JetBrains Mono&amp;quot;, monospace; font-size: 18px;&quot;&gt; circular array(循环数组): Object[] &lt;span style=&quot;color: rgb(152, 118, 170); font-size: 18px;&quot;&gt;elements &lt;/span&gt;&lt;/pre&gt;" style="text;html=1;strokeColor=none;fillColor=none;align=center;verticalAlign=middle;whiteSpace=wrap;rounded=0;fontSize=18;" parent="1" vertex="1">
                    <mxGeometry x="-692" y="-1110" width="520" height="40" as="geometry"/>
                </mxCell>
                <mxCell id="5" value="" style="line;strokeWidth=1;html=1;strokeColor=none;" parent="1" vertex="1">
                    <mxGeometry x="-841" y="-1130" width="830" height="10" as="geometry"/>
                </mxCell>
                <mxCell id="6" value="" style="line;strokeWidth=1;html=1;" parent="1" vertex="1">
                    <mxGeometry x="-840" y="-1020" width="830" height="10" as="geometry"/>
                </mxCell>
                <mxCell id="7" value="new ArrayDeque()" style="rounded=0;whiteSpace=wrap;html=1;fontSize=15;fillColor=#dae8fc;strokeColor=#6c8ebf;" parent="1" vertex="1">
                    <mxGeometry x="-840" y="-1000" width="130" height="40" as="geometry"/>
                </mxCell>
                <mxCell id="8" value="" style="whiteSpace=wrap;html=1;aspect=fixed;fontSize=15;" parent="1" vertex="1">
                    <mxGeometry x="-760" y="-880" width="40" height="40" as="geometry"/>
                </mxCell>
                <mxCell id="9" value="" style="whiteSpace=wrap;html=1;aspect=fixed;fontSize=15;" parent="1" vertex="1">
                    <mxGeometry x="-720" y="-880" width="40" height="40" as="geometry"/>
                </mxCell>
                <mxCell id="10" value="" style="whiteSpace=wrap;html=1;aspect=fixed;fontSize=15;" parent="1" vertex="1">
                    <mxGeometry x="-680" y="-880" width="40" height="40" as="geometry"/>
                </mxCell>
                <mxCell id="11" value="" style="whiteSpace=wrap;html=1;aspect=fixed;fontSize=15;" parent="1" vertex="1">
                    <mxGeometry x="-640" y="-880" width="40" height="40" as="geometry"/>
                </mxCell>
                <mxCell id="12" value="" style="whiteSpace=wrap;html=1;aspect=fixed;fontSize=15;" parent="1" vertex="1">
                    <mxGeometry x="-600" y="-880" width="40" height="40" as="geometry"/>
                </mxCell>
                <mxCell id="13" value="" style="whiteSpace=wrap;html=1;aspect=fixed;fontSize=15;" parent="1" vertex="1">
                    <mxGeometry x="-560" y="-880" width="40" height="40" as="geometry"/>
                </mxCell>
                <mxCell id="14" value="" style="whiteSpace=wrap;html=1;aspect=fixed;fontSize=15;" parent="1" vertex="1">
                    <mxGeometry x="-520" y="-880" width="40" height="40" as="geometry"/>
                </mxCell>
                <mxCell id="15" value="" style="whiteSpace=wrap;html=1;aspect=fixed;fontSize=15;" parent="1" vertex="1">
                    <mxGeometry x="-480" y="-880" width="40" height="40" as="geometry"/>
                </mxCell>
                <mxCell id="16" value="" style="whiteSpace=wrap;html=1;aspect=fixed;fontSize=15;" parent="1" vertex="1">
                    <mxGeometry x="-440" y="-880" width="40" height="40" as="geometry"/>
                </mxCell>
                <mxCell id="17" value="" style="whiteSpace=wrap;html=1;aspect=fixed;fontSize=15;" parent="1" vertex="1">
                    <mxGeometry x="-400" y="-880" width="40" height="40" as="geometry"/>
                </mxCell>
                <mxCell id="18" value="" style="whiteSpace=wrap;html=1;aspect=fixed;fontSize=15;" parent="1" vertex="1">
                    <mxGeometry x="-360" y="-880" width="40" height="40" as="geometry"/>
                </mxCell>
                <mxCell id="19" value="" style="whiteSpace=wrap;html=1;aspect=fixed;fontSize=15;" parent="1" vertex="1">
                    <mxGeometry x="-320" y="-880" width="40" height="40" as="geometry"/>
                </mxCell>
                <mxCell id="20" value="" style="whiteSpace=wrap;html=1;aspect=fixed;fontSize=15;" parent="1" vertex="1">
                    <mxGeometry x="-280" y="-880" width="40" height="40" as="geometry"/>
                </mxCell>
                <mxCell id="21" value="" style="whiteSpace=wrap;html=1;aspect=fixed;fontSize=15;" parent="1" vertex="1">
                    <mxGeometry x="-240" y="-880" width="40" height="40" as="geometry"/>
                </mxCell>
                <mxCell id="22" value="" style="whiteSpace=wrap;html=1;aspect=fixed;fontSize=15;" parent="1" vertex="1">
                    <mxGeometry x="-200" y="-880" width="40" height="40" as="geometry"/>
                </mxCell>
                <mxCell id="23" value="" style="whiteSpace=wrap;html=1;aspect=fixed;fontSize=15;" parent="1" vertex="1">
                    <mxGeometry x="-160" y="-880" width="40" height="40" as="geometry"/>
                </mxCell>
                <mxCell id="27" style="edgeStyle=none;html=1;exitX=0.5;exitY=1;exitDx=0;exitDy=0;entryX=0.5;entryY=0;entryDx=0;entryDy=0;fontSize=15;fontColor=#007FFF;strokeColor=#009900;" parent="1" source="24" target="8" edge="1">
                    <mxGeometry relative="1" as="geometry"/>
                </mxCell>
                <mxCell id="24" value="head" style="text;html=1;align=center;verticalAlign=middle;whiteSpace=wrap;rounded=0;fontSize=14;fontColor=#009900;" parent="1" vertex="1">
                    <mxGeometry x="-770" y="-940" width="60" height="30" as="geometry"/>
                </mxCell>
                <mxCell id="26" value="初始容量为16，&lt;br&gt;head = tail表明集合为Empty" style="text;html=1;strokeColor=none;fillColor=none;align=center;verticalAlign=middle;whiteSpace=wrap;rounded=0;fontSize=15;fontColor=#007FFF;" parent="1" vertex="1">
                    <mxGeometry x="-700" y="-1000" width="200" height="40" as="geometry"/>
                </mxCell>
                <mxCell id="29" style="edgeStyle=none;html=1;exitX=0.5;exitY=0;exitDx=0;exitDy=0;entryX=0.5;entryY=1;entryDx=0;entryDy=0;strokeColor=#FF8000;fontSize=15;fontColor=#FF8000;" parent="1" source="28" target="8" edge="1">
                    <mxGeometry relative="1" as="geometry"/>
                </mxCell>
                <mxCell id="28" value="tail" style="text;html=1;align=center;verticalAlign=middle;whiteSpace=wrap;rounded=0;fontSize=14;fontColor=#FF8000;" parent="1" vertex="1">
                    <mxGeometry x="-770" y="-810" width="60" height="30" as="geometry"/>
                </mxCell>
                <mxCell id="30" value="head: 删除点" style="text;html=1;align=center;verticalAlign=middle;whiteSpace=wrap;rounded=0;fontSize=14;fontColor=#009900;" parent="1" vertex="1">
                    <mxGeometry x="-200" y="-995" width="120" height="30" as="geometry"/>
                </mxCell>
                <mxCell id="31" value="tail：插入点" style="text;html=1;align=center;verticalAlign=middle;whiteSpace=wrap;rounded=0;fontSize=14;fontColor=#FF8000;" parent="1" vertex="1">
                    <mxGeometry x="-200" y="-965" width="120" height="30" as="geometry"/>
                </mxCell>
                <mxCell id="35" value="" style="line;strokeWidth=1;html=1;" parent="1" vertex="1">
                    <mxGeometry x="-840" y="-770" width="830" height="10" as="geometry"/>
                </mxCell>
                <mxCell id="36" value="添加元素0，1，2" style="rounded=0;whiteSpace=wrap;html=1;fontSize=15;fillColor=#dae8fc;strokeColor=#6c8ebf;" parent="1" vertex="1">
                    <mxGeometry x="-840" y="-750" width="130" height="40" as="geometry"/>
                </mxCell>
                <mxCell id="56" value="0" style="whiteSpace=wrap;html=1;aspect=fixed;fontSize=15;fillColor=#f8cecc;strokeColor=#b85450;" parent="1" vertex="1">
                    <mxGeometry x="-760" y="-630" width="40" height="40" as="geometry"/>
                </mxCell>
                <mxCell id="57" value="" style="whiteSpace=wrap;html=1;aspect=fixed;fontSize=15;" parent="1" vertex="1">
                    <mxGeometry x="-720" y="-630" width="40" height="40" as="geometry"/>
                </mxCell>
                <mxCell id="58" value="" style="whiteSpace=wrap;html=1;aspect=fixed;fontSize=15;" parent="1" vertex="1">
                    <mxGeometry x="-680" y="-630" width="40" height="40" as="geometry"/>
                </mxCell>
                <mxCell id="59" value="" style="whiteSpace=wrap;html=1;aspect=fixed;fontSize=15;" parent="1" vertex="1">
                    <mxGeometry x="-640" y="-630" width="40" height="40" as="geometry"/>
                </mxCell>
                <mxCell id="60" value="" style="whiteSpace=wrap;html=1;aspect=fixed;fontSize=15;" parent="1" vertex="1">
                    <mxGeometry x="-600" y="-630" width="40" height="40" as="geometry"/>
                </mxCell>
                <mxCell id="61" value="" style="whiteSpace=wrap;html=1;aspect=fixed;fontSize=15;" parent="1" vertex="1">
                    <mxGeometry x="-560" y="-630" width="40" height="40" as="geometry"/>
                </mxCell>
                <mxCell id="62" value="" style="whiteSpace=wrap;html=1;aspect=fixed;fontSize=15;" parent="1" vertex="1">
                    <mxGeometry x="-520" y="-630" width="40" height="40" as="geometry"/>
                </mxCell>
                <mxCell id="63" value="" style="whiteSpace=wrap;html=1;aspect=fixed;fontSize=15;" parent="1" vertex="1">
                    <mxGeometry x="-480" y="-630" width="40" height="40" as="geometry"/>
                </mxCell>
                <mxCell id="64" value="" style="whiteSpace=wrap;html=1;aspect=fixed;fontSize=15;" parent="1" vertex="1">
                    <mxGeometry x="-440" y="-630" width="40" height="40" as="geometry"/>
                </mxCell>
                <mxCell id="65" value="" style="whiteSpace=wrap;html=1;aspect=fixed;fontSize=15;" parent="1" vertex="1">
                    <mxGeometry x="-400" y="-630" width="40" height="40" as="geometry"/>
                </mxCell>
                <mxCell id="66" value="" style="whiteSpace=wrap;html=1;aspect=fixed;fontSize=15;" parent="1" vertex="1">
                    <mxGeometry x="-360" y="-630" width="40" height="40" as="geometry"/>
                </mxCell>
                <mxCell id="67" value="" style="whiteSpace=wrap;html=1;aspect=fixed;fontSize=15;" parent="1" vertex="1">
                    <mxGeometry x="-320" y="-630" width="40" height="40" as="geometry"/>
                </mxCell>
                <mxCell id="68" value="" style="whiteSpace=wrap;html=1;aspect=fixed;fontSize=15;" parent="1" vertex="1">
                    <mxGeometry x="-280" y="-630" width="40" height="40" as="geometry"/>
                </mxCell>
                <mxCell id="69" value="" style="whiteSpace=wrap;html=1;aspect=fixed;fontSize=15;" parent="1" vertex="1">
                    <mxGeometry x="-240" y="-630" width="40" height="40" as="geometry"/>
                </mxCell>
                <mxCell id="70" value="" style="whiteSpace=wrap;html=1;aspect=fixed;fontSize=15;" parent="1" vertex="1">
                    <mxGeometry x="-200" y="-630" width="40" height="40" as="geometry"/>
                </mxCell>
                <mxCell id="71" value="" style="whiteSpace=wrap;html=1;aspect=fixed;fontSize=15;" parent="1" vertex="1">
                    <mxGeometry x="-160" y="-630" width="40" height="40" as="geometry"/>
                </mxCell>
                <mxCell id="72" style="edgeStyle=none;html=1;exitX=0.5;exitY=1;exitDx=0;exitDy=0;entryX=0.5;entryY=0;entryDx=0;entryDy=0;fontSize=15;fontColor=#007FFF;strokeColor=#009900;" parent="1" source="73" target="56" edge="1">
                    <mxGeometry relative="1" as="geometry"/>
                </mxCell>
                <mxCell id="73" value="head" style="text;html=1;align=center;verticalAlign=middle;whiteSpace=wrap;rounded=0;fontSize=14;fontColor=#009900;" parent="1" vertex="1">
                    <mxGeometry x="-770" y="-690" width="60" height="30" as="geometry"/>
                </mxCell>
                <mxCell id="76" value="0" style="whiteSpace=wrap;html=1;aspect=fixed;fontSize=15;fillColor=#f8cecc;strokeColor=#b85450;" parent="1" vertex="1">
                    <mxGeometry x="-760" y="-457" width="40" height="40" as="geometry"/>
                </mxCell>
                <mxCell id="77" value="1" style="whiteSpace=wrap;html=1;aspect=fixed;fontSize=15;fillColor=#f8cecc;strokeColor=#b85450;" parent="1" vertex="1">
                    <mxGeometry x="-720" y="-457" width="40" height="40" as="geometry"/>
                </mxCell>
                <mxCell id="78" value="" style="whiteSpace=wrap;html=1;aspect=fixed;fontSize=15;" parent="1" vertex="1">
                    <mxGeometry x="-680" y="-457" width="40" height="40" as="geometry"/>
                </mxCell>
                <mxCell id="79" value="" style="whiteSpace=wrap;html=1;aspect=fixed;fontSize=15;" parent="1" vertex="1">
                    <mxGeometry x="-640" y="-457" width="40" height="40" as="geometry"/>
                </mxCell>
                <mxCell id="80" value="" style="whiteSpace=wrap;html=1;aspect=fixed;fontSize=15;" parent="1" vertex="1">
                    <mxGeometry x="-600" y="-457" width="40" height="40" as="geometry"/>
                </mxCell>
                <mxCell id="81" value="" style="whiteSpace=wrap;html=1;aspect=fixed;fontSize=15;" parent="1" vertex="1">
                    <mxGeometry x="-560" y="-457" width="40" height="40" as="geometry"/>
                </mxCell>
                <mxCell id="82" value="" style="whiteSpace=wrap;html=1;aspect=fixed;fontSize=15;" parent="1" vertex="1">
                    <mxGeometry x="-520" y="-457" width="40" height="40" as="geometry"/>
                </mxCell>
                <mxCell id="83" value="" style="whiteSpace=wrap;html=1;aspect=fixed;fontSize=15;" parent="1" vertex="1">
                    <mxGeometry x="-480" y="-457" width="40" height="40" as="geometry"/>
                </mxCell>
                <mxCell id="84" value="" style="whiteSpace=wrap;html=1;aspect=fixed;fontSize=15;" parent="1" vertex="1">
                    <mxGeometry x="-440" y="-457" width="40" height="40" as="geometry"/>
                </mxCell>
                <mxCell id="85" value="" style="whiteSpace=wrap;html=1;aspect=fixed;fontSize=15;" parent="1" vertex="1">
                    <mxGeometry x="-400" y="-457" width="40" height="40" as="geometry"/>
                </mxCell>
                <mxCell id="86" value="" style="whiteSpace=wrap;html=1;aspect=fixed;fontSize=15;" parent="1" vertex="1">
                    <mxGeometry x="-360" y="-457" width="40" height="40" as="geometry"/>
                </mxCell>
                <mxCell id="87" value="" style="whiteSpace=wrap;html=1;aspect=fixed;fontSize=15;" parent="1" vertex="1">
                    <mxGeometry x="-320" y="-457" width="40" height="40" as="geometry"/>
                </mxCell>
                <mxCell id="88" value="" style="whiteSpace=wrap;html=1;aspect=fixed;fontSize=15;" parent="1" vertex="1">
                    <mxGeometry x="-280" y="-457" width="40" height="40" as="geometry"/>
                </mxCell>
                <mxCell id="89" value="" style="whiteSpace=wrap;html=1;aspect=fixed;fontSize=15;" parent="1" vertex="1">
                    <mxGeometry x="-240" y="-457" width="40" height="40" as="geometry"/>
                </mxCell>
                <mxCell id="90" value="" style="whiteSpace=wrap;html=1;aspect=fixed;fontSize=15;" parent="1" vertex="1">
                    <mxGeometry x="-200" y="-457" width="40" height="40" as="geometry"/>
                </mxCell>
                <mxCell id="91" value="" style="whiteSpace=wrap;html=1;aspect=fixed;fontSize=15;" parent="1" vertex="1">
                    <mxGeometry x="-160" y="-457" width="40" height="40" as="geometry"/>
                </mxCell>
                <mxCell id="92" style="edgeStyle=none;html=1;exitX=0.5;exitY=1;exitDx=0;exitDy=0;entryX=0.5;entryY=0;entryDx=0;entryDy=0;fontSize=15;fontColor=#007FFF;strokeColor=#009900;" parent="1" source="93" target="76" edge="1">
                    <mxGeometry relative="1" as="geometry"/>
                </mxCell>
                <mxCell id="93" value="head" style="text;html=1;align=center;verticalAlign=middle;whiteSpace=wrap;rounded=0;fontSize=14;fontColor=#009900;" parent="1" vertex="1">
                    <mxGeometry x="-770" y="-517" width="60" height="30" as="geometry"/>
                </mxCell>
                <mxCell id="96" value="0" style="whiteSpace=wrap;html=1;aspect=fixed;fontSize=15;fillColor=#f8cecc;strokeColor=#b85450;" parent="1" vertex="1">
                    <mxGeometry x="-760" y="-287" width="40" height="40" as="geometry"/>
                </mxCell>
                <mxCell id="97" value="1" style="whiteSpace=wrap;html=1;aspect=fixed;fontSize=15;fillColor=#f8cecc;strokeColor=#b85450;" parent="1" vertex="1">
                    <mxGeometry x="-720" y="-287" width="40" height="40" as="geometry"/>
                </mxCell>
                <mxCell id="98" value="2" style="whiteSpace=wrap;html=1;aspect=fixed;fontSize=15;fillColor=#f8cecc;strokeColor=#b85450;" parent="1" vertex="1">
                    <mxGeometry x="-680" y="-287" width="40" height="40" as="geometry"/>
                </mxCell>
                <mxCell id="99" value="" style="whiteSpace=wrap;html=1;aspect=fixed;fontSize=15;" parent="1" vertex="1">
                    <mxGeometry x="-640" y="-287" width="40" height="40" as="geometry"/>
                </mxCell>
                <mxCell id="100" value="" style="whiteSpace=wrap;html=1;aspect=fixed;fontSize=15;" parent="1" vertex="1">
                    <mxGeometry x="-600" y="-287" width="40" height="40" as="geometry"/>
                </mxCell>
                <mxCell id="101" value="" style="whiteSpace=wrap;html=1;aspect=fixed;fontSize=15;" parent="1" vertex="1">
                    <mxGeometry x="-560" y="-287" width="40" height="40" as="geometry"/>
                </mxCell>
                <mxCell id="102" value="" style="whiteSpace=wrap;html=1;aspect=fixed;fontSize=15;" parent="1" vertex="1">
                    <mxGeometry x="-520" y="-287" width="40" height="40" as="geometry"/>
                </mxCell>
                <mxCell id="103" value="" style="whiteSpace=wrap;html=1;aspect=fixed;fontSize=15;" parent="1" vertex="1">
                    <mxGeometry x="-480" y="-287" width="40" height="40" as="geometry"/>
                </mxCell>
                <mxCell id="104" value="" style="whiteSpace=wrap;html=1;aspect=fixed;fontSize=15;" parent="1" vertex="1">
                    <mxGeometry x="-440" y="-287" width="40" height="40" as="geometry"/>
                </mxCell>
                <mxCell id="105" value="" style="whiteSpace=wrap;html=1;aspect=fixed;fontSize=15;" parent="1" vertex="1">
                    <mxGeometry x="-400" y="-287" width="40" height="40" as="geometry"/>
                </mxCell>
                <mxCell id="106" value="" style="whiteSpace=wrap;html=1;aspect=fixed;fontSize=15;" parent="1" vertex="1">
                    <mxGeometry x="-360" y="-287" width="40" height="40" as="geometry"/>
                </mxCell>
                <mxCell id="107" value="" style="whiteSpace=wrap;html=1;aspect=fixed;fontSize=15;" parent="1" vertex="1">
                    <mxGeometry x="-320" y="-287" width="40" height="40" as="geometry"/>
                </mxCell>
                <mxCell id="108" value="" style="whiteSpace=wrap;html=1;aspect=fixed;fontSize=15;" parent="1" vertex="1">
                    <mxGeometry x="-280" y="-287" width="40" height="40" as="geometry"/>
                </mxCell>
                <mxCell id="109" value="" style="whiteSpace=wrap;html=1;aspect=fixed;fontSize=15;" parent="1" vertex="1">
                    <mxGeometry x="-240" y="-287" width="40" height="40" as="geometry"/>
                </mxCell>
                <mxCell id="110" value="" style="whiteSpace=wrap;html=1;aspect=fixed;fontSize=15;" parent="1" vertex="1">
                    <mxGeometry x="-200" y="-287" width="40" height="40" as="geometry"/>
                </mxCell>
                <mxCell id="111" value="" style="whiteSpace=wrap;html=1;aspect=fixed;fontSize=15;" parent="1" vertex="1">
                    <mxGeometry x="-160" y="-287" width="40" height="40" as="geometry"/>
                </mxCell>
                <mxCell id="112" style="edgeStyle=none;html=1;exitX=0.5;exitY=1;exitDx=0;exitDy=0;entryX=0.5;entryY=0;entryDx=0;entryDy=0;fontSize=15;fontColor=#007FFF;strokeColor=#009900;" parent="1" source="113" target="96" edge="1">
                    <mxGeometry relative="1" as="geometry"/>
                </mxCell>
                <mxCell id="113" value="head" style="text;html=1;align=center;verticalAlign=middle;whiteSpace=wrap;rounded=0;fontSize=14;fontColor=#009900;" parent="1" vertex="1">
                    <mxGeometry x="-770" y="-347" width="60" height="30" as="geometry"/>
                </mxCell>
                <mxCell id="114" style="edgeStyle=none;html=1;exitX=0.5;exitY=0;exitDx=0;exitDy=0;entryX=0.5;entryY=1;entryDx=0;entryDy=0;strokeColor=#FF8000;fontSize=15;fontColor=#FF8000;" parent="1" edge="1">
                    <mxGeometry relative="1" as="geometry">
                        <mxPoint x="-620" y="-217.00000000000023" as="sourcePoint"/>
                        <mxPoint x="-620" y="-247.00000000000023" as="targetPoint"/>
                    </mxGeometry>
                </mxCell>
                <mxCell id="115" value="tail" style="text;html=1;align=center;verticalAlign=middle;whiteSpace=wrap;rounded=0;fontSize=14;fontColor=#FF8000;" parent="1" vertex="1">
                    <mxGeometry x="-650" y="-220" width="60" height="30" as="geometry"/>
                </mxCell>
                <mxCell id="116" style="edgeStyle=none;html=1;exitX=0.5;exitY=0;exitDx=0;exitDy=0;entryX=0.5;entryY=1;entryDx=0;entryDy=0;strokeColor=#FF8000;fontSize=15;fontColor=#FF8000;" parent="1" edge="1">
                    <mxGeometry relative="1" as="geometry">
                        <mxPoint x="-660" y="-387.0000000000002" as="sourcePoint"/>
                        <mxPoint x="-660" y="-417.0000000000002" as="targetPoint"/>
                    </mxGeometry>
                </mxCell>
                <mxCell id="117" value="tail" style="text;html=1;align=center;verticalAlign=middle;whiteSpace=wrap;rounded=0;fontSize=14;fontColor=#FF8000;" parent="1" vertex="1">
                    <mxGeometry x="-690" y="-390" width="60" height="30" as="geometry"/>
                </mxCell>
                <mxCell id="118" style="edgeStyle=none;html=1;exitX=0.5;exitY=0;exitDx=0;exitDy=0;entryX=0.5;entryY=1;entryDx=0;entryDy=0;strokeColor=#FF8000;fontSize=15;fontColor=#FF8000;" parent="1" edge="1">
                    <mxGeometry relative="1" as="geometry">
                        <mxPoint x="-700" y="-560.0000000000002" as="sourcePoint"/>
                        <mxPoint x="-700" y="-590.0000000000002" as="targetPoint"/>
                    </mxGeometry>
                </mxCell>
                <mxCell id="119" value="tail" style="text;html=1;align=center;verticalAlign=middle;whiteSpace=wrap;rounded=0;fontSize=14;fontColor=#FF8000;" parent="1" vertex="1">
                    <mxGeometry x="-730" y="-563" width="60" height="30" as="geometry"/>
                </mxCell>
                <mxCell id="120" value="" style="line;strokeWidth=1;html=1;" parent="1" vertex="1">
                    <mxGeometry x="-840" y="-190" width="830" height="10" as="geometry"/>
                </mxCell>
                <mxCell id="122" value="" style="whiteSpace=wrap;html=1;aspect=fixed;fontSize=15;" parent="1" vertex="1">
                    <mxGeometry x="-761" y="-70" width="40" height="40" as="geometry"/>
                </mxCell>
                <mxCell id="123" value="1" style="whiteSpace=wrap;html=1;aspect=fixed;fontSize=15;fillColor=#f8cecc;strokeColor=#b85450;" parent="1" vertex="1">
                    <mxGeometry x="-721" y="-70" width="40" height="40" as="geometry"/>
                </mxCell>
                <mxCell id="124" value="2" style="whiteSpace=wrap;html=1;aspect=fixed;fontSize=15;fillColor=#f8cecc;strokeColor=#b85450;" parent="1" vertex="1">
                    <mxGeometry x="-681" y="-70" width="40" height="40" as="geometry"/>
                </mxCell>
                <mxCell id="125" value="" style="whiteSpace=wrap;html=1;aspect=fixed;fontSize=15;" parent="1" vertex="1">
                    <mxGeometry x="-641" y="-70" width="40" height="40" as="geometry"/>
                </mxCell>
                <mxCell id="126" value="" style="whiteSpace=wrap;html=1;aspect=fixed;fontSize=15;" parent="1" vertex="1">
                    <mxGeometry x="-601" y="-70" width="40" height="40" as="geometry"/>
                </mxCell>
                <mxCell id="127" value="" style="whiteSpace=wrap;html=1;aspect=fixed;fontSize=15;" parent="1" vertex="1">
                    <mxGeometry x="-561" y="-70" width="40" height="40" as="geometry"/>
                </mxCell>
                <mxCell id="128" value="" style="whiteSpace=wrap;html=1;aspect=fixed;fontSize=15;" parent="1" vertex="1">
                    <mxGeometry x="-521" y="-70" width="40" height="40" as="geometry"/>
                </mxCell>
                <mxCell id="129" value="" style="whiteSpace=wrap;html=1;aspect=fixed;fontSize=15;" parent="1" vertex="1">
                    <mxGeometry x="-481" y="-70" width="40" height="40" as="geometry"/>
                </mxCell>
                <mxCell id="130" value="" style="whiteSpace=wrap;html=1;aspect=fixed;fontSize=15;" parent="1" vertex="1">
                    <mxGeometry x="-441" y="-70" width="40" height="40" as="geometry"/>
                </mxCell>
                <mxCell id="131" value="" style="whiteSpace=wrap;html=1;aspect=fixed;fontSize=15;" parent="1" vertex="1">
                    <mxGeometry x="-401" y="-70" width="40" height="40" as="geometry"/>
                </mxCell>
                <mxCell id="132" value="" style="whiteSpace=wrap;html=1;aspect=fixed;fontSize=15;" parent="1" vertex="1">
                    <mxGeometry x="-361" y="-70" width="40" height="40" as="geometry"/>
                </mxCell>
                <mxCell id="133" value="" style="whiteSpace=wrap;html=1;aspect=fixed;fontSize=15;" parent="1" vertex="1">
                    <mxGeometry x="-321" y="-70" width="40" height="40" as="geometry"/>
                </mxCell>
                <mxCell id="134" value="" style="whiteSpace=wrap;html=1;aspect=fixed;fontSize=15;" parent="1" vertex="1">
                    <mxGeometry x="-281" y="-70" width="40" height="40" as="geometry"/>
                </mxCell>
                <mxCell id="135" value="" style="whiteSpace=wrap;html=1;aspect=fixed;fontSize=15;" parent="1" vertex="1">
                    <mxGeometry x="-241" y="-70" width="40" height="40" as="geometry"/>
                </mxCell>
                <mxCell id="136" value="" style="whiteSpace=wrap;html=1;aspect=fixed;fontSize=15;" parent="1" vertex="1">
                    <mxGeometry x="-201" y="-70" width="40" height="40" as="geometry"/>
                </mxCell>
                <mxCell id="137" value="" style="whiteSpace=wrap;html=1;aspect=fixed;fontSize=15;" parent="1" vertex="1">
                    <mxGeometry x="-161" y="-70" width="40" height="40" as="geometry"/>
                </mxCell>
                <mxCell id="138" style="edgeStyle=none;html=1;exitX=0.5;exitY=1;exitDx=0;exitDy=0;entryX=0.5;entryY=0;entryDx=0;entryDy=0;fontSize=15;fontColor=#007FFF;strokeColor=#009900;" parent="1" source="139" edge="1">
                    <mxGeometry relative="1" as="geometry">
                        <mxPoint x="-701" y="-70" as="targetPoint"/>
                    </mxGeometry>
                </mxCell>
                <mxCell id="139" value="head" style="text;html=1;align=center;verticalAlign=middle;whiteSpace=wrap;rounded=0;fontSize=14;fontColor=#009900;" parent="1" vertex="1">
                    <mxGeometry x="-731" y="-130" width="60" height="30" as="geometry"/>
                </mxCell>
                <mxCell id="140" style="edgeStyle=none;html=1;exitX=0.5;exitY=0;exitDx=0;exitDy=0;entryX=0.5;entryY=1;entryDx=0;entryDy=0;strokeColor=#FF8000;fontSize=15;fontColor=#FF8000;" parent="1" edge="1">
                    <mxGeometry relative="1" as="geometry">
                        <mxPoint x="-621" y="-4.547473508864641e-13" as="sourcePoint"/>
                        <mxPoint x="-621" y="-30.000000000000455" as="targetPoint"/>
                    </mxGeometry>
                </mxCell>
                <mxCell id="141" value="tail" style="text;html=1;align=center;verticalAlign=middle;whiteSpace=wrap;rounded=0;fontSize=14;fontColor=#FF8000;" parent="1" vertex="1">
                    <mxGeometry x="-651" y="-3" width="60" height="30" as="geometry"/>
                </mxCell>
                <mxCell id="142" value="" style="whiteSpace=wrap;html=1;aspect=fixed;fontSize=15;" parent="1" vertex="1">
                    <mxGeometry x="-761" y="100" width="40" height="40" as="geometry"/>
                </mxCell>
                <mxCell id="143" value="" style="whiteSpace=wrap;html=1;aspect=fixed;fontSize=15;" parent="1" vertex="1">
                    <mxGeometry x="-721" y="100" width="40" height="40" as="geometry"/>
                </mxCell>
                <mxCell id="144" value="2" style="whiteSpace=wrap;html=1;aspect=fixed;fontSize=15;fillColor=#f8cecc;strokeColor=#b85450;" parent="1" vertex="1">
                    <mxGeometry x="-681" y="100" width="40" height="40" as="geometry"/>
                </mxCell>
                <mxCell id="145" value="" style="whiteSpace=wrap;html=1;aspect=fixed;fontSize=15;" parent="1" vertex="1">
                    <mxGeometry x="-641" y="100" width="40" height="40" as="geometry"/>
                </mxCell>
                <mxCell id="146" value="" style="whiteSpace=wrap;html=1;aspect=fixed;fontSize=15;" parent="1" vertex="1">
                    <mxGeometry x="-601" y="100" width="40" height="40" as="geometry"/>
                </mxCell>
                <mxCell id="147" value="" style="whiteSpace=wrap;html=1;aspect=fixed;fontSize=15;" parent="1" vertex="1">
                    <mxGeometry x="-561" y="100" width="40" height="40" as="geometry"/>
                </mxCell>
                <mxCell id="148" value="" style="whiteSpace=wrap;html=1;aspect=fixed;fontSize=15;" parent="1" vertex="1">
                    <mxGeometry x="-521" y="100" width="40" height="40" as="geometry"/>
                </mxCell>
                <mxCell id="149" value="" style="whiteSpace=wrap;html=1;aspect=fixed;fontSize=15;" parent="1" vertex="1">
                    <mxGeometry x="-481" y="100" width="40" height="40" as="geometry"/>
                </mxCell>
                <mxCell id="150" value="" style="whiteSpace=wrap;html=1;aspect=fixed;fontSize=15;" parent="1" vertex="1">
                    <mxGeometry x="-441" y="100" width="40" height="40" as="geometry"/>
                </mxCell>
                <mxCell id="151" value="" style="whiteSpace=wrap;html=1;aspect=fixed;fontSize=15;" parent="1" vertex="1">
                    <mxGeometry x="-401" y="100" width="40" height="40" as="geometry"/>
                </mxCell>
                <mxCell id="152" value="" style="whiteSpace=wrap;html=1;aspect=fixed;fontSize=15;" parent="1" vertex="1">
                    <mxGeometry x="-361" y="100" width="40" height="40" as="geometry"/>
                </mxCell>
                <mxCell id="153" value="" style="whiteSpace=wrap;html=1;aspect=fixed;fontSize=15;" parent="1" vertex="1">
                    <mxGeometry x="-321" y="100" width="40" height="40" as="geometry"/>
                </mxCell>
                <mxCell id="154" value="" style="whiteSpace=wrap;html=1;aspect=fixed;fontSize=15;" parent="1" vertex="1">
                    <mxGeometry x="-281" y="100" width="40" height="40" as="geometry"/>
                </mxCell>
                <mxCell id="155" value="" style="whiteSpace=wrap;html=1;aspect=fixed;fontSize=15;" parent="1" vertex="1">
                    <mxGeometry x="-241" y="100" width="40" height="40" as="geometry"/>
                </mxCell>
                <mxCell id="156" value="" style="whiteSpace=wrap;html=1;aspect=fixed;fontSize=15;" parent="1" vertex="1">
                    <mxGeometry x="-201" y="100" width="40" height="40" as="geometry"/>
                </mxCell>
                <mxCell id="157" value="" style="whiteSpace=wrap;html=1;aspect=fixed;fontSize=15;" parent="1" vertex="1">
                    <mxGeometry x="-161" y="100" width="40" height="40" as="geometry"/>
                </mxCell>
                <mxCell id="158" style="edgeStyle=none;html=1;exitX=0.5;exitY=1;exitDx=0;exitDy=0;entryX=0.5;entryY=0;entryDx=0;entryDy=0;fontSize=15;fontColor=#007FFF;strokeColor=#009900;" parent="1" source="159" edge="1">
                    <mxGeometry relative="1" as="geometry">
                        <mxPoint x="-661" y="100" as="targetPoint"/>
                    </mxGeometry>
                </mxCell>
                <mxCell id="159" value="head" style="text;html=1;align=center;verticalAlign=middle;whiteSpace=wrap;rounded=0;fontSize=14;fontColor=#009900;" parent="1" vertex="1">
                    <mxGeometry x="-691" y="40" width="60" height="30" as="geometry"/>
                </mxCell>
                <mxCell id="160" style="edgeStyle=none;html=1;exitX=0.5;exitY=0;exitDx=0;exitDy=0;entryX=0.5;entryY=1;entryDx=0;entryDy=0;strokeColor=#FF8000;fontSize=15;fontColor=#FF8000;" parent="1" edge="1">
                    <mxGeometry relative="1" as="geometry">
                        <mxPoint x="-621" y="169.99999999999955" as="sourcePoint"/>
                        <mxPoint x="-621" y="139.99999999999955" as="targetPoint"/>
                    </mxGeometry>
                </mxCell>
                <mxCell id="161" value="tail" style="text;html=1;align=center;verticalAlign=middle;whiteSpace=wrap;rounded=0;fontSize=14;fontColor=#FF8000;" parent="1" vertex="1">
                    <mxGeometry x="-651" y="167" width="60" height="30" as="geometry"/>
                </mxCell>
                <mxCell id="162" value="" style="whiteSpace=wrap;html=1;aspect=fixed;fontSize=15;" parent="1" vertex="1">
                    <mxGeometry x="-761" y="266" width="40" height="40" as="geometry"/>
                </mxCell>
                <mxCell id="163" value="" style="whiteSpace=wrap;html=1;aspect=fixed;fontSize=15;" parent="1" vertex="1">
                    <mxGeometry x="-721" y="266" width="40" height="40" as="geometry"/>
                </mxCell>
                <mxCell id="164" value="" style="whiteSpace=wrap;html=1;aspect=fixed;fontSize=15;" parent="1" vertex="1">
                    <mxGeometry x="-681" y="266" width="40" height="40" as="geometry"/>
                </mxCell>
                <mxCell id="165" value="" style="whiteSpace=wrap;html=1;aspect=fixed;fontSize=15;" parent="1" vertex="1">
                    <mxGeometry x="-641" y="266" width="40" height="40" as="geometry"/>
                </mxCell>
                <mxCell id="166" value="" style="whiteSpace=wrap;html=1;aspect=fixed;fontSize=15;" parent="1" vertex="1">
                    <mxGeometry x="-601" y="266" width="40" height="40" as="geometry"/>
                </mxCell>
                <mxCell id="167" value="" style="whiteSpace=wrap;html=1;aspect=fixed;fontSize=15;" parent="1" vertex="1">
                    <mxGeometry x="-561" y="266" width="40" height="40" as="geometry"/>
                </mxCell>
                <mxCell id="168" value="" style="whiteSpace=wrap;html=1;aspect=fixed;fontSize=15;" parent="1" vertex="1">
                    <mxGeometry x="-521" y="266" width="40" height="40" as="geometry"/>
                </mxCell>
                <mxCell id="169" value="" style="whiteSpace=wrap;html=1;aspect=fixed;fontSize=15;" parent="1" vertex="1">
                    <mxGeometry x="-481" y="266" width="40" height="40" as="geometry"/>
                </mxCell>
                <mxCell id="170" value="" style="whiteSpace=wrap;html=1;aspect=fixed;fontSize=15;" parent="1" vertex="1">
                    <mxGeometry x="-441" y="266" width="40" height="40" as="geometry"/>
                </mxCell>
                <mxCell id="171" value="" style="whiteSpace=wrap;html=1;aspect=fixed;fontSize=15;" parent="1" vertex="1">
                    <mxGeometry x="-401" y="266" width="40" height="40" as="geometry"/>
                </mxCell>
                <mxCell id="172" value="" style="whiteSpace=wrap;html=1;aspect=fixed;fontSize=15;" parent="1" vertex="1">
                    <mxGeometry x="-361" y="266" width="40" height="40" as="geometry"/>
                </mxCell>
                <mxCell id="173" value="" style="whiteSpace=wrap;html=1;aspect=fixed;fontSize=15;" parent="1" vertex="1">
                    <mxGeometry x="-321" y="266" width="40" height="40" as="geometry"/>
                </mxCell>
                <mxCell id="174" value="" style="whiteSpace=wrap;html=1;aspect=fixed;fontSize=15;" parent="1" vertex="1">
                    <mxGeometry x="-281" y="266" width="40" height="40" as="geometry"/>
                </mxCell>
                <mxCell id="175" value="" style="whiteSpace=wrap;html=1;aspect=fixed;fontSize=15;" parent="1" vertex="1">
                    <mxGeometry x="-241" y="266" width="40" height="40" as="geometry"/>
                </mxCell>
                <mxCell id="176" value="" style="whiteSpace=wrap;html=1;aspect=fixed;fontSize=15;" parent="1" vertex="1">
                    <mxGeometry x="-201" y="266" width="40" height="40" as="geometry"/>
                </mxCell>
                <mxCell id="177" value="" style="whiteSpace=wrap;html=1;aspect=fixed;fontSize=15;" parent="1" vertex="1">
                    <mxGeometry x="-161" y="266" width="40" height="40" as="geometry"/>
                </mxCell>
                <mxCell id="178" style="edgeStyle=none;html=1;exitX=0.5;exitY=1;exitDx=0;exitDy=0;entryX=0.5;entryY=0;entryDx=0;entryDy=0;fontSize=15;fontColor=#007FFF;strokeColor=#009900;" parent="1" source="179" edge="1">
                    <mxGeometry relative="1" as="geometry">
                        <mxPoint x="-621" y="266" as="targetPoint"/>
                    </mxGeometry>
                </mxCell>
                <mxCell id="179" value="head" style="text;html=1;align=center;verticalAlign=middle;whiteSpace=wrap;rounded=0;fontSize=14;fontColor=#009900;" parent="1" vertex="1">
                    <mxGeometry x="-651" y="206" width="60" height="30" as="geometry"/>
                </mxCell>
                <mxCell id="180" style="edgeStyle=none;html=1;exitX=0.5;exitY=0;exitDx=0;exitDy=0;entryX=0.5;entryY=1;entryDx=0;entryDy=0;strokeColor=#FF8000;fontSize=15;fontColor=#FF8000;" parent="1" edge="1">
                    <mxGeometry relative="1" as="geometry">
                        <mxPoint x="-621" y="335.99999999999955" as="sourcePoint"/>
                        <mxPoint x="-621" y="305.99999999999955" as="targetPoint"/>
                    </mxGeometry>
                </mxCell>
                <mxCell id="181" value="tail" style="text;html=1;align=center;verticalAlign=middle;whiteSpace=wrap;rounded=0;fontSize=14;fontColor=#FF8000;" parent="1" vertex="1">
                    <mxGeometry x="-651" y="333" width="60" height="30" as="geometry"/>
                </mxCell>
                <mxCell id="182" value="" style="line;strokeWidth=1;html=1;" parent="1" vertex="1">
                    <mxGeometry x="-841" y="363" width="830" height="10" as="geometry"/>
                </mxCell>
                <mxCell id="184" value="" style="whiteSpace=wrap;html=1;aspect=fixed;fontSize=15;" parent="1" vertex="1">
                    <mxGeometry x="-761" y="480" width="40" height="40" as="geometry"/>
                </mxCell>
                <mxCell id="185" value="" style="whiteSpace=wrap;html=1;aspect=fixed;fontSize=15;" parent="1" vertex="1">
                    <mxGeometry x="-721" y="480" width="40" height="40" as="geometry"/>
                </mxCell>
                <mxCell id="186" value="" style="whiteSpace=wrap;html=1;aspect=fixed;fontSize=15;" parent="1" vertex="1">
                    <mxGeometry x="-681" y="480" width="40" height="40" as="geometry"/>
                </mxCell>
                <mxCell id="187" value="a" style="whiteSpace=wrap;html=1;aspect=fixed;fontSize=15;fillColor=#f8cecc;strokeColor=#b85450;" parent="1" vertex="1">
                    <mxGeometry x="-641" y="480" width="40" height="40" as="geometry"/>
                </mxCell>
                <mxCell id="188" value="b" style="whiteSpace=wrap;html=1;aspect=fixed;fontSize=15;fillColor=#f8cecc;strokeColor=#b85450;" parent="1" vertex="1">
                    <mxGeometry x="-601" y="480" width="40" height="40" as="geometry"/>
                </mxCell>
                <mxCell id="189" value="c" style="whiteSpace=wrap;html=1;aspect=fixed;fontSize=15;fillColor=#f8cecc;strokeColor=#b85450;" parent="1" vertex="1">
                    <mxGeometry x="-561" y="480" width="40" height="40" as="geometry"/>
                </mxCell>
                <mxCell id="190" value="d" style="whiteSpace=wrap;html=1;aspect=fixed;fontSize=15;fillColor=#f8cecc;strokeColor=#b85450;" parent="1" vertex="1">
                    <mxGeometry x="-521" y="480" width="40" height="40" as="geometry"/>
                </mxCell>
                <mxCell id="191" value="e" style="whiteSpace=wrap;html=1;aspect=fixed;fontSize=15;fillColor=#f8cecc;strokeColor=#b85450;" parent="1" vertex="1">
                    <mxGeometry x="-481" y="480" width="40" height="40" as="geometry"/>
                </mxCell>
                <mxCell id="192" value="f" style="whiteSpace=wrap;html=1;aspect=fixed;fontSize=15;fillColor=#f8cecc;strokeColor=#b85450;" parent="1" vertex="1">
                    <mxGeometry x="-441" y="480" width="40" height="40" as="geometry"/>
                </mxCell>
                <mxCell id="193" value="g" style="whiteSpace=wrap;html=1;aspect=fixed;fontSize=15;fillColor=#f8cecc;strokeColor=#b85450;" parent="1" vertex="1">
                    <mxGeometry x="-401" y="480" width="40" height="40" as="geometry"/>
                </mxCell>
                <mxCell id="194" value="h" style="whiteSpace=wrap;html=1;aspect=fixed;fontSize=15;fillColor=#f8cecc;strokeColor=#b85450;" parent="1" vertex="1">
                    <mxGeometry x="-361" y="480" width="40" height="40" as="geometry"/>
                </mxCell>
                <mxCell id="195" value="i" style="whiteSpace=wrap;html=1;aspect=fixed;fontSize=15;fillColor=#f8cecc;strokeColor=#b85450;" parent="1" vertex="1">
                    <mxGeometry x="-321" y="480" width="40" height="40" as="geometry"/>
                </mxCell>
                <mxCell id="196" value="j" style="whiteSpace=wrap;html=1;aspect=fixed;fontSize=15;fillColor=#f8cecc;strokeColor=#b85450;" parent="1" vertex="1">
                    <mxGeometry x="-281" y="480" width="40" height="40" as="geometry"/>
                </mxCell>
                <mxCell id="197" value="k" style="whiteSpace=wrap;html=1;aspect=fixed;fontSize=15;fillColor=#f8cecc;strokeColor=#b85450;" parent="1" vertex="1">
                    <mxGeometry x="-241" y="480" width="40" height="40" as="geometry"/>
                </mxCell>
                <mxCell id="198" value="l" style="whiteSpace=wrap;html=1;aspect=fixed;fontSize=15;fillColor=#f8cecc;strokeColor=#b85450;" parent="1" vertex="1">
                    <mxGeometry x="-201" y="480" width="40" height="40" as="geometry"/>
                </mxCell>
                <mxCell id="199" value="" style="whiteSpace=wrap;html=1;aspect=fixed;fontSize=15;" parent="1" vertex="1">
                    <mxGeometry x="-161" y="480" width="40" height="40" as="geometry"/>
                </mxCell>
                <mxCell id="200" style="edgeStyle=none;html=1;exitX=0.5;exitY=1;exitDx=0;exitDy=0;entryX=0.5;entryY=0;entryDx=0;entryDy=0;fontSize=15;fontColor=#007FFF;strokeColor=#009900;" parent="1" source="201" edge="1">
                    <mxGeometry relative="1" as="geometry">
                        <mxPoint x="-621" y="480" as="targetPoint"/>
                    </mxGeometry>
                </mxCell>
                <mxCell id="201" value="head" style="text;html=1;align=center;verticalAlign=middle;whiteSpace=wrap;rounded=0;fontSize=14;fontColor=#009900;" parent="1" vertex="1">
                    <mxGeometry x="-651" y="420" width="60" height="30" as="geometry"/>
                </mxCell>
                <mxCell id="202" style="edgeStyle=none;html=1;exitX=0.5;exitY=0;exitDx=0;exitDy=0;entryX=0.5;entryY=1;entryDx=0;entryDy=0;strokeColor=#FF8000;fontSize=15;fontColor=#FF8000;" parent="1" edge="1">
                    <mxGeometry relative="1" as="geometry">
                        <mxPoint x="-141" y="549.9999999999995" as="sourcePoint"/>
                        <mxPoint x="-141" y="519.9999999999995" as="targetPoint"/>
                    </mxGeometry>
                </mxCell>
                <mxCell id="203" value="tail" style="text;html=1;align=center;verticalAlign=middle;whiteSpace=wrap;rounded=0;fontSize=14;fontColor=#FF8000;" parent="1" vertex="1">
                    <mxGeometry x="-171" y="547" width="60" height="30" as="geometry"/>
                </mxCell>
                <mxCell id="204" value="" style="line;strokeWidth=1;html=1;" parent="1" vertex="1">
                    <mxGeometry x="-845" y="577" width="830" height="10" as="geometry"/>
                </mxCell>
                <mxCell id="205" value="" style="whiteSpace=wrap;html=1;aspect=fixed;fontSize=15;" parent="1" vertex="1">
                    <mxGeometry x="-762" y="660" width="40" height="40" as="geometry"/>
                </mxCell>
                <mxCell id="206" value="" style="whiteSpace=wrap;html=1;aspect=fixed;fontSize=15;" parent="1" vertex="1">
                    <mxGeometry x="-722" y="660" width="40" height="40" as="geometry"/>
                </mxCell>
                <mxCell id="207" value="" style="whiteSpace=wrap;html=1;aspect=fixed;fontSize=15;" parent="1" vertex="1">
                    <mxGeometry x="-682" y="660" width="40" height="40" as="geometry"/>
                </mxCell>
                <mxCell id="208" value="a" style="whiteSpace=wrap;html=1;aspect=fixed;fontSize=15;fillColor=#f8cecc;strokeColor=#b85450;" parent="1" vertex="1">
                    <mxGeometry x="-642" y="660" width="40" height="40" as="geometry"/>
                </mxCell>
                <mxCell id="209" value="b" style="whiteSpace=wrap;html=1;aspect=fixed;fontSize=15;fillColor=#f8cecc;strokeColor=#b85450;" parent="1" vertex="1">
                    <mxGeometry x="-602" y="660" width="40" height="40" as="geometry"/>
                </mxCell>
                <mxCell id="210" value="c" style="whiteSpace=wrap;html=1;aspect=fixed;fontSize=15;fillColor=#f8cecc;strokeColor=#b85450;" parent="1" vertex="1">
                    <mxGeometry x="-562" y="660" width="40" height="40" as="geometry"/>
                </mxCell>
                <mxCell id="211" value="d" style="whiteSpace=wrap;html=1;aspect=fixed;fontSize=15;fillColor=#f8cecc;strokeColor=#b85450;" parent="1" vertex="1">
                    <mxGeometry x="-522" y="660" width="40" height="40" as="geometry"/>
                </mxCell>
                <mxCell id="212" value="e" style="whiteSpace=wrap;html=1;aspect=fixed;fontSize=15;fillColor=#f8cecc;strokeColor=#b85450;" parent="1" vertex="1">
                    <mxGeometry x="-482" y="660" width="40" height="40" as="geometry"/>
                </mxCell>
                <mxCell id="213" value="f" style="whiteSpace=wrap;html=1;aspect=fixed;fontSize=15;fillColor=#f8cecc;strokeColor=#b85450;" parent="1" vertex="1">
                    <mxGeometry x="-442" y="660" width="40" height="40" as="geometry"/>
                </mxCell>
                <mxCell id="214" value="g" style="whiteSpace=wrap;html=1;aspect=fixed;fontSize=15;fillColor=#f8cecc;strokeColor=#b85450;" parent="1" vertex="1">
                    <mxGeometry x="-402" y="660" width="40" height="40" as="geometry"/>
                </mxCell>
                <mxCell id="215" value="h" style="whiteSpace=wrap;html=1;aspect=fixed;fontSize=15;fillColor=#f8cecc;strokeColor=#b85450;" parent="1" vertex="1">
                    <mxGeometry x="-362" y="660" width="40" height="40" as="geometry"/>
                </mxCell>
                <mxCell id="216" value="i" style="whiteSpace=wrap;html=1;aspect=fixed;fontSize=15;fillColor=#f8cecc;strokeColor=#b85450;" parent="1" vertex="1">
                    <mxGeometry x="-322" y="660" width="40" height="40" as="geometry"/>
                </mxCell>
                <mxCell id="217" value="j" style="whiteSpace=wrap;html=1;aspect=fixed;fontSize=15;fillColor=#f8cecc;strokeColor=#b85450;" parent="1" vertex="1">
                    <mxGeometry x="-282" y="660" width="40" height="40" as="geometry"/>
                </mxCell>
                <mxCell id="218" value="k" style="whiteSpace=wrap;html=1;aspect=fixed;fontSize=15;fillColor=#f8cecc;strokeColor=#b85450;" parent="1" vertex="1">
                    <mxGeometry x="-242" y="660" width="40" height="40" as="geometry"/>
                </mxCell>
                <mxCell id="219" value="l" style="whiteSpace=wrap;html=1;aspect=fixed;fontSize=15;fillColor=#f8cecc;strokeColor=#b85450;" parent="1" vertex="1">
                    <mxGeometry x="-202" y="660" width="40" height="40" as="geometry"/>
                </mxCell>
                <mxCell id="220" value="m" style="whiteSpace=wrap;html=1;aspect=fixed;fontSize=15;fillColor=#f8cecc;strokeColor=#b85450;" parent="1" vertex="1">
                    <mxGeometry x="-162" y="660" width="40" height="40" as="geometry"/>
                </mxCell>
                <mxCell id="221" style="edgeStyle=none;html=1;exitX=0.5;exitY=1;exitDx=0;exitDy=0;entryX=0.5;entryY=0;entryDx=0;entryDy=0;fontSize=15;fontColor=#007FFF;strokeColor=#009900;" parent="1" source="222" edge="1">
                    <mxGeometry relative="1" as="geometry">
                        <mxPoint x="-622" y="660" as="targetPoint"/>
                    </mxGeometry>
                </mxCell>
                <mxCell id="222" value="head" style="text;html=1;align=center;verticalAlign=middle;whiteSpace=wrap;rounded=0;fontSize=14;fontColor=#009900;" parent="1" vertex="1">
                    <mxGeometry x="-652" y="600" width="60" height="30" as="geometry"/>
                </mxCell>
                <mxCell id="223" style="edgeStyle=none;html=1;exitX=0.5;exitY=0;exitDx=0;exitDy=0;entryX=0.5;entryY=1;entryDx=0;entryDy=0;strokeColor=#FF8000;fontSize=15;fontColor=#FF8000;" parent="1" edge="1">
                    <mxGeometry relative="1" as="geometry">
                        <mxPoint x="-742" y="729.9999999999995" as="sourcePoint"/>
                        <mxPoint x="-742" y="699.9999999999995" as="targetPoint"/>
                    </mxGeometry>
                </mxCell>
                <mxCell id="224" value="tail" style="text;html=1;align=center;verticalAlign=middle;whiteSpace=wrap;rounded=0;fontSize=14;fontColor=#FF8000;" parent="1" vertex="1">
                    <mxGeometry x="-772" y="727" width="60" height="30" as="geometry"/>
                </mxCell>
                <mxCell id="226" value="" style="line;strokeWidth=1;html=1;" parent="1" vertex="1">
                    <mxGeometry x="-840" y="770" width="830" height="10" as="geometry"/>
                </mxCell>
                <mxCell id="227" value="n" style="whiteSpace=wrap;html=1;aspect=fixed;fontSize=15;fillColor=#f8cecc;strokeColor=#b85450;" parent="1" vertex="1">
                    <mxGeometry x="-762" y="860" width="40" height="40" as="geometry"/>
                </mxCell>
                <mxCell id="228" value="" style="whiteSpace=wrap;html=1;aspect=fixed;fontSize=15;" parent="1" vertex="1">
                    <mxGeometry x="-722" y="860" width="40" height="40" as="geometry"/>
                </mxCell>
                <mxCell id="229" value="" style="whiteSpace=wrap;html=1;aspect=fixed;fontSize=15;" parent="1" vertex="1">
                    <mxGeometry x="-682" y="860" width="40" height="40" as="geometry"/>
                </mxCell>
                <mxCell id="230" value="a" style="whiteSpace=wrap;html=1;aspect=fixed;fontSize=15;fillColor=#f8cecc;strokeColor=#b85450;" parent="1" vertex="1">
                    <mxGeometry x="-642" y="860" width="40" height="40" as="geometry"/>
                </mxCell>
                <mxCell id="231" value="b" style="whiteSpace=wrap;html=1;aspect=fixed;fontSize=15;fillColor=#f8cecc;strokeColor=#b85450;" parent="1" vertex="1">
                    <mxGeometry x="-602" y="860" width="40" height="40" as="geometry"/>
                </mxCell>
                <mxCell id="232" value="c" style="whiteSpace=wrap;html=1;aspect=fixed;fontSize=15;fillColor=#f8cecc;strokeColor=#b85450;" parent="1" vertex="1">
                    <mxGeometry x="-562" y="860" width="40" height="40" as="geometry"/>
                </mxCell>
                <mxCell id="233" value="d" style="whiteSpace=wrap;html=1;aspect=fixed;fontSize=15;fillColor=#f8cecc;strokeColor=#b85450;" parent="1" vertex="1">
                    <mxGeometry x="-522" y="860" width="40" height="40" as="geometry"/>
                </mxCell>
                <mxCell id="234" value="e" style="whiteSpace=wrap;html=1;aspect=fixed;fontSize=15;fillColor=#f8cecc;strokeColor=#b85450;" parent="1" vertex="1">
                    <mxGeometry x="-482" y="860" width="40" height="40" as="geometry"/>
                </mxCell>
                <mxCell id="235" value="f" style="whiteSpace=wrap;html=1;aspect=fixed;fontSize=15;fillColor=#f8cecc;strokeColor=#b85450;" parent="1" vertex="1">
                    <mxGeometry x="-442" y="860" width="40" height="40" as="geometry"/>
                </mxCell>
                <mxCell id="236" value="g" style="whiteSpace=wrap;html=1;aspect=fixed;fontSize=15;fillColor=#f8cecc;strokeColor=#b85450;" parent="1" vertex="1">
                    <mxGeometry x="-402" y="860" width="40" height="40" as="geometry"/>
                </mxCell>
                <mxCell id="237" value="h" style="whiteSpace=wrap;html=1;aspect=fixed;fontSize=15;fillColor=#f8cecc;strokeColor=#b85450;" parent="1" vertex="1">
                    <mxGeometry x="-362" y="860" width="40" height="40" as="geometry"/>
                </mxCell>
                <mxCell id="238" value="i" style="whiteSpace=wrap;html=1;aspect=fixed;fontSize=15;fillColor=#f8cecc;strokeColor=#b85450;" parent="1" vertex="1">
                    <mxGeometry x="-322" y="860" width="40" height="40" as="geometry"/>
                </mxCell>
                <mxCell id="239" value="j" style="whiteSpace=wrap;html=1;aspect=fixed;fontSize=15;fillColor=#f8cecc;strokeColor=#b85450;" parent="1" vertex="1">
                    <mxGeometry x="-282" y="860" width="40" height="40" as="geometry"/>
                </mxCell>
                <mxCell id="240" value="k" style="whiteSpace=wrap;html=1;aspect=fixed;fontSize=15;fillColor=#f8cecc;strokeColor=#b85450;" parent="1" vertex="1">
                    <mxGeometry x="-242" y="860" width="40" height="40" as="geometry"/>
                </mxCell>
                <mxCell id="241" value="l" style="whiteSpace=wrap;html=1;aspect=fixed;fontSize=15;fillColor=#f8cecc;strokeColor=#b85450;" parent="1" vertex="1">
                    <mxGeometry x="-202" y="860" width="40" height="40" as="geometry"/>
                </mxCell>
                <mxCell id="242" value="m" style="whiteSpace=wrap;html=1;aspect=fixed;fontSize=15;fillColor=#f8cecc;strokeColor=#b85450;" parent="1" vertex="1">
                    <mxGeometry x="-162" y="860" width="40" height="40" as="geometry"/>
                </mxCell>
                <mxCell id="243" style="edgeStyle=none;html=1;exitX=0.5;exitY=1;exitDx=0;exitDy=0;entryX=0.5;entryY=0;entryDx=0;entryDy=0;fontSize=15;fontColor=#007FFF;strokeColor=#009900;" parent="1" source="244" edge="1">
                    <mxGeometry relative="1" as="geometry">
                        <mxPoint x="-622" y="860" as="targetPoint"/>
                    </mxGeometry>
                </mxCell>
                <mxCell id="244" value="head" style="text;html=1;align=center;verticalAlign=middle;whiteSpace=wrap;rounded=0;fontSize=14;fontColor=#009900;" parent="1" vertex="1">
                    <mxGeometry x="-652" y="800" width="60" height="30" as="geometry"/>
                </mxCell>
                <mxCell id="245" style="edgeStyle=none;html=1;exitX=0.5;exitY=0;exitDx=0;exitDy=0;entryX=0.5;entryY=1;entryDx=0;entryDy=0;strokeColor=#FF8000;fontSize=15;fontColor=#FF8000;" parent="1" edge="1">
                    <mxGeometry relative="1" as="geometry">
                        <mxPoint x="-702" y="939.9999999999995" as="sourcePoint"/>
                        <mxPoint x="-702" y="909.9999999999995" as="targetPoint"/>
                    </mxGeometry>
                </mxCell>
                <mxCell id="246" value="tail" style="text;html=1;align=center;verticalAlign=middle;whiteSpace=wrap;rounded=0;fontSize=14;fontColor=#FF8000;" parent="1" vertex="1">
                    <mxGeometry x="-732" y="937" width="60" height="30" as="geometry"/>
                </mxCell>
                <mxCell id="248" value="n" style="whiteSpace=wrap;html=1;aspect=fixed;fontSize=15;fillColor=#f8cecc;strokeColor=#b85450;" parent="1" vertex="1">
                    <mxGeometry x="-762" y="1060" width="40" height="40" as="geometry"/>
                </mxCell>
                <mxCell id="249" value="o" style="whiteSpace=wrap;html=1;aspect=fixed;fontSize=15;fillColor=#f8cecc;strokeColor=#b85450;" parent="1" vertex="1">
                    <mxGeometry x="-722" y="1060" width="40" height="40" as="geometry"/>
                </mxCell>
                <mxCell id="250" value="" style="whiteSpace=wrap;html=1;aspect=fixed;fontSize=15;" parent="1" vertex="1">
                    <mxGeometry x="-682" y="1060" width="40" height="40" as="geometry"/>
                </mxCell>
                <mxCell id="251" value="a" style="whiteSpace=wrap;html=1;aspect=fixed;fontSize=15;fillColor=#f8cecc;strokeColor=#b85450;" parent="1" vertex="1">
                    <mxGeometry x="-642" y="1060" width="40" height="40" as="geometry"/>
                </mxCell>
                <mxCell id="252" value="b" style="whiteSpace=wrap;html=1;aspect=fixed;fontSize=15;fillColor=#f8cecc;strokeColor=#b85450;" parent="1" vertex="1">
                    <mxGeometry x="-602" y="1060" width="40" height="40" as="geometry"/>
                </mxCell>
                <mxCell id="253" value="c" style="whiteSpace=wrap;html=1;aspect=fixed;fontSize=15;fillColor=#f8cecc;strokeColor=#b85450;" parent="1" vertex="1">
                    <mxGeometry x="-562" y="1060" width="40" height="40" as="geometry"/>
                </mxCell>
                <mxCell id="254" value="d" style="whiteSpace=wrap;html=1;aspect=fixed;fontSize=15;fillColor=#f8cecc;strokeColor=#b85450;" parent="1" vertex="1">
                    <mxGeometry x="-522" y="1060" width="40" height="40" as="geometry"/>
                </mxCell>
                <mxCell id="255" value="e" style="whiteSpace=wrap;html=1;aspect=fixed;fontSize=15;fillColor=#f8cecc;strokeColor=#b85450;" parent="1" vertex="1">
                    <mxGeometry x="-482" y="1060" width="40" height="40" as="geometry"/>
                </mxCell>
                <mxCell id="256" value="f" style="whiteSpace=wrap;html=1;aspect=fixed;fontSize=15;fillColor=#f8cecc;strokeColor=#b85450;" parent="1" vertex="1">
                    <mxGeometry x="-442" y="1060" width="40" height="40" as="geometry"/>
                </mxCell>
                <mxCell id="257" value="g" style="whiteSpace=wrap;html=1;aspect=fixed;fontSize=15;fillColor=#f8cecc;strokeColor=#b85450;" parent="1" vertex="1">
                    <mxGeometry x="-402" y="1060" width="40" height="40" as="geometry"/>
                </mxCell>
                <mxCell id="258" value="h" style="whiteSpace=wrap;html=1;aspect=fixed;fontSize=15;fillColor=#f8cecc;strokeColor=#b85450;" parent="1" vertex="1">
                    <mxGeometry x="-362" y="1060" width="40" height="40" as="geometry"/>
                </mxCell>
                <mxCell id="259" value="i" style="whiteSpace=wrap;html=1;aspect=fixed;fontSize=15;fillColor=#f8cecc;strokeColor=#b85450;" parent="1" vertex="1">
                    <mxGeometry x="-322" y="1060" width="40" height="40" as="geometry"/>
                </mxCell>
                <mxCell id="260" value="j" style="whiteSpace=wrap;html=1;aspect=fixed;fontSize=15;fillColor=#f8cecc;strokeColor=#b85450;" parent="1" vertex="1">
                    <mxGeometry x="-282" y="1060" width="40" height="40" as="geometry"/>
                </mxCell>
                <mxCell id="261" value="k" style="whiteSpace=wrap;html=1;aspect=fixed;fontSize=15;fillColor=#f8cecc;strokeColor=#b85450;" parent="1" vertex="1">
                    <mxGeometry x="-242" y="1060" width="40" height="40" as="geometry"/>
                </mxCell>
                <mxCell id="262" value="l" style="whiteSpace=wrap;html=1;aspect=fixed;fontSize=15;fillColor=#f8cecc;strokeColor=#b85450;" parent="1" vertex="1">
                    <mxGeometry x="-202" y="1060" width="40" height="40" as="geometry"/>
                </mxCell>
                <mxCell id="263" value="m" style="whiteSpace=wrap;html=1;aspect=fixed;fontSize=15;fillColor=#f8cecc;strokeColor=#b85450;" parent="1" vertex="1">
                    <mxGeometry x="-162" y="1060" width="40" height="40" as="geometry"/>
                </mxCell>
                <mxCell id="264" style="edgeStyle=none;html=1;exitX=0.5;exitY=1;exitDx=0;exitDy=0;entryX=0.5;entryY=0;entryDx=0;entryDy=0;fontSize=15;fontColor=#007FFF;strokeColor=#009900;" parent="1" source="265" edge="1">
                    <mxGeometry relative="1" as="geometry">
                        <mxPoint x="-622" y="1060" as="targetPoint"/>
                    </mxGeometry>
                </mxCell>
                <mxCell id="265" value="head" style="text;html=1;align=center;verticalAlign=middle;whiteSpace=wrap;rounded=0;fontSize=14;fontColor=#009900;" parent="1" vertex="1">
                    <mxGeometry x="-652" y="1000" width="60" height="30" as="geometry"/>
                </mxCell>
                <mxCell id="266" style="edgeStyle=none;html=1;exitX=0.5;exitY=0;exitDx=0;exitDy=0;entryX=0.5;entryY=1;entryDx=0;entryDy=0;strokeColor=#FF8000;fontSize=15;fontColor=#FF8000;" parent="1" edge="1">
                    <mxGeometry relative="1" as="geometry">
                        <mxPoint x="-662" y="1139.9999999999995" as="sourcePoint"/>
                        <mxPoint x="-662" y="1109.9999999999995" as="targetPoint"/>
                    </mxGeometry>
                </mxCell>
                <mxCell id="267" value="tail" style="text;html=1;align=center;verticalAlign=middle;whiteSpace=wrap;rounded=0;fontSize=14;fontColor=#FF8000;" parent="1" vertex="1">
                    <mxGeometry x="-692" y="1137" width="60" height="30" as="geometry"/>
                </mxCell>
                <mxCell id="268" value="n" style="whiteSpace=wrap;html=1;aspect=fixed;fontSize=15;fillColor=#f8cecc;strokeColor=#b85450;" parent="1" vertex="1">
                    <mxGeometry x="-751" y="1312" width="40" height="40" as="geometry"/>
                </mxCell>
                <mxCell id="269" value="o" style="whiteSpace=wrap;html=1;aspect=fixed;fontSize=15;fillColor=#f8cecc;strokeColor=#b85450;" parent="1" vertex="1">
                    <mxGeometry x="-711" y="1312" width="40" height="40" as="geometry"/>
                </mxCell>
                <mxCell id="270" value="p" style="whiteSpace=wrap;html=1;aspect=fixed;fontSize=15;fillColor=#f8cecc;strokeColor=#b85450;" parent="1" vertex="1">
                    <mxGeometry x="-671" y="1312" width="40" height="40" as="geometry"/>
                </mxCell>
                <mxCell id="271" value="a" style="whiteSpace=wrap;html=1;aspect=fixed;fontSize=15;fillColor=#f8cecc;strokeColor=#b85450;" parent="1" vertex="1">
                    <mxGeometry x="-631" y="1312" width="40" height="40" as="geometry"/>
                </mxCell>
                <mxCell id="272" value="b" style="whiteSpace=wrap;html=1;aspect=fixed;fontSize=15;fillColor=#f8cecc;strokeColor=#b85450;" parent="1" vertex="1">
                    <mxGeometry x="-591" y="1312" width="40" height="40" as="geometry"/>
                </mxCell>
                <mxCell id="273" value="c" style="whiteSpace=wrap;html=1;aspect=fixed;fontSize=15;fillColor=#f8cecc;strokeColor=#b85450;" parent="1" vertex="1">
                    <mxGeometry x="-551" y="1312" width="40" height="40" as="geometry"/>
                </mxCell>
                <mxCell id="274" value="d" style="whiteSpace=wrap;html=1;aspect=fixed;fontSize=15;fillColor=#f8cecc;strokeColor=#b85450;" parent="1" vertex="1">
                    <mxGeometry x="-511" y="1312" width="40" height="40" as="geometry"/>
                </mxCell>
                <mxCell id="275" value="e" style="whiteSpace=wrap;html=1;aspect=fixed;fontSize=15;fillColor=#f8cecc;strokeColor=#b85450;" parent="1" vertex="1">
                    <mxGeometry x="-471" y="1312" width="40" height="40" as="geometry"/>
                </mxCell>
                <mxCell id="276" value="f" style="whiteSpace=wrap;html=1;aspect=fixed;fontSize=15;fillColor=#f8cecc;strokeColor=#b85450;" parent="1" vertex="1">
                    <mxGeometry x="-431" y="1312" width="40" height="40" as="geometry"/>
                </mxCell>
                <mxCell id="277" value="g" style="whiteSpace=wrap;html=1;aspect=fixed;fontSize=15;fillColor=#f8cecc;strokeColor=#b85450;" parent="1" vertex="1">
                    <mxGeometry x="-391" y="1312" width="40" height="40" as="geometry"/>
                </mxCell>
                <mxCell id="278" value="h" style="whiteSpace=wrap;html=1;aspect=fixed;fontSize=15;fillColor=#f8cecc;strokeColor=#b85450;" parent="1" vertex="1">
                    <mxGeometry x="-351" y="1312" width="40" height="40" as="geometry"/>
                </mxCell>
                <mxCell id="279" value="i" style="whiteSpace=wrap;html=1;aspect=fixed;fontSize=15;fillColor=#f8cecc;strokeColor=#b85450;" parent="1" vertex="1">
                    <mxGeometry x="-311" y="1312" width="40" height="40" as="geometry"/>
                </mxCell>
                <mxCell id="280" value="j" style="whiteSpace=wrap;html=1;aspect=fixed;fontSize=15;fillColor=#f8cecc;strokeColor=#b85450;" parent="1" vertex="1">
                    <mxGeometry x="-271" y="1312" width="40" height="40" as="geometry"/>
                </mxCell>
                <mxCell id="281" value="k" style="whiteSpace=wrap;html=1;aspect=fixed;fontSize=15;fillColor=#f8cecc;strokeColor=#b85450;" parent="1" vertex="1">
                    <mxGeometry x="-231" y="1312" width="40" height="40" as="geometry"/>
                </mxCell>
                <mxCell id="282" value="l" style="whiteSpace=wrap;html=1;aspect=fixed;fontSize=15;fillColor=#f8cecc;strokeColor=#b85450;" parent="1" vertex="1">
                    <mxGeometry x="-191" y="1312" width="40" height="40" as="geometry"/>
                </mxCell>
                <mxCell id="283" value="m" style="whiteSpace=wrap;html=1;aspect=fixed;fontSize=15;fillColor=#f8cecc;strokeColor=#b85450;" parent="1" vertex="1">
                    <mxGeometry x="-151" y="1312" width="40" height="40" as="geometry"/>
                </mxCell>
                <mxCell id="284" style="edgeStyle=none;html=1;exitX=0.5;exitY=1;exitDx=0;exitDy=0;entryX=0.5;entryY=0;entryDx=0;entryDy=0;fontSize=15;fontColor=#007FFF;strokeColor=#009900;" parent="1" source="285" edge="1">
                    <mxGeometry relative="1" as="geometry">
                        <mxPoint x="-611" y="1312" as="targetPoint"/>
                    </mxGeometry>
                </mxCell>
                <mxCell id="285" value="head" style="text;html=1;align=center;verticalAlign=middle;whiteSpace=wrap;rounded=0;fontSize=14;fontColor=#009900;" parent="1" vertex="1">
                    <mxGeometry x="-641" y="1252" width="60" height="30" as="geometry"/>
                </mxCell>
                <mxCell id="286" style="edgeStyle=none;html=1;exitX=0.5;exitY=0;exitDx=0;exitDy=0;entryX=0.5;entryY=1;entryDx=0;entryDy=0;strokeColor=#FF8000;fontSize=15;fontColor=#FF8000;" parent="1" edge="1">
                    <mxGeometry relative="1" as="geometry">
                        <mxPoint x="-611" y="1391.9999999999995" as="sourcePoint"/>
                        <mxPoint x="-611" y="1361.9999999999995" as="targetPoint"/>
                    </mxGeometry>
                </mxCell>
                <mxCell id="287" value="tail" style="text;html=1;align=center;verticalAlign=middle;whiteSpace=wrap;rounded=0;fontSize=14;fontColor=#FF8000;" parent="1" vertex="1">
                    <mxGeometry x="-641" y="1389" width="60" height="30" as="geometry"/>
                </mxCell>
                <mxCell id="288" value="" style="endArrow=classic;html=1;strokeColor=#9673a6;fontSize=15;fontColor=#009900;fillColor=#e1d5e7;" parent="1" edge="1">
                    <mxGeometry width="50" height="50" relative="1" as="geometry">
                        <mxPoint x="-432.33" y="1362" as="sourcePoint"/>
                        <mxPoint x="-432.33" y="1512" as="targetPoint"/>
                    </mxGeometry>
                </mxCell>
                <mxCell id="289" value="两倍扩容 capacity 16 ---&amp;gt; 32" style="edgeLabel;html=1;align=center;verticalAlign=middle;resizable=0;points=[];fontSize=15;fontColor=#FF66FF;" parent="288" vertex="1" connectable="0">
                    <mxGeometry x="-0.0385" relative="1" as="geometry">
                        <mxPoint as="offset"/>
                    </mxGeometry>
                </mxCell>
                <mxCell id="298" value="a" style="whiteSpace=wrap;html=1;aspect=fixed;fontSize=15;fillColor=#f8cecc;strokeColor=#b85450;" parent="1" vertex="1">
                    <mxGeometry x="-829" y="1532" width="40" height="40" as="geometry"/>
                </mxCell>
                <mxCell id="299" value="b" style="whiteSpace=wrap;html=1;aspect=fixed;fontSize=15;fillColor=#f8cecc;strokeColor=#b85450;" parent="1" vertex="1">
                    <mxGeometry x="-789" y="1532" width="40" height="40" as="geometry"/>
                </mxCell>
                <mxCell id="300" value="c" style="whiteSpace=wrap;html=1;aspect=fixed;fontSize=15;fillColor=#f8cecc;strokeColor=#b85450;" parent="1" vertex="1">
                    <mxGeometry x="-749" y="1532" width="40" height="40" as="geometry"/>
                </mxCell>
                <mxCell id="301" value="d" style="whiteSpace=wrap;html=1;aspect=fixed;fontSize=15;fillColor=#f8cecc;strokeColor=#b85450;" parent="1" vertex="1">
                    <mxGeometry x="-709" y="1532" width="40" height="40" as="geometry"/>
                </mxCell>
                <mxCell id="302" value="e" style="whiteSpace=wrap;html=1;aspect=fixed;fontSize=15;fillColor=#f8cecc;strokeColor=#b85450;" parent="1" vertex="1">
                    <mxGeometry x="-669" y="1532" width="40" height="40" as="geometry"/>
                </mxCell>
                <mxCell id="303" value="f" style="whiteSpace=wrap;html=1;aspect=fixed;fontSize=15;fillColor=#f8cecc;strokeColor=#b85450;" parent="1" vertex="1">
                    <mxGeometry x="-629" y="1532" width="40" height="40" as="geometry"/>
                </mxCell>
                <mxCell id="304" value="g" style="whiteSpace=wrap;html=1;aspect=fixed;fontSize=15;fillColor=#f8cecc;strokeColor=#b85450;" parent="1" vertex="1">
                    <mxGeometry x="-589" y="1532" width="40" height="40" as="geometry"/>
                </mxCell>
                <mxCell id="305" value="h" style="whiteSpace=wrap;html=1;aspect=fixed;fontSize=15;fillColor=#f8cecc;strokeColor=#b85450;" parent="1" vertex="1">
                    <mxGeometry x="-549" y="1532" width="40" height="40" as="geometry"/>
                </mxCell>
                <mxCell id="306" value="i" style="whiteSpace=wrap;html=1;aspect=fixed;fontSize=15;fillColor=#f8cecc;strokeColor=#b85450;" parent="1" vertex="1">
                    <mxGeometry x="-509" y="1532" width="40" height="40" as="geometry"/>
                </mxCell>
                <mxCell id="307" value="j" style="whiteSpace=wrap;html=1;aspect=fixed;fontSize=15;fillColor=#f8cecc;strokeColor=#b85450;" parent="1" vertex="1">
                    <mxGeometry x="-469" y="1532" width="40" height="40" as="geometry"/>
                </mxCell>
                <mxCell id="308" value="k" style="whiteSpace=wrap;html=1;aspect=fixed;fontSize=15;fillColor=#f8cecc;strokeColor=#b85450;" parent="1" vertex="1">
                    <mxGeometry x="-429" y="1532" width="40" height="40" as="geometry"/>
                </mxCell>
                <mxCell id="309" value="l" style="whiteSpace=wrap;html=1;aspect=fixed;fontSize=15;fillColor=#f8cecc;strokeColor=#b85450;" parent="1" vertex="1">
                    <mxGeometry x="-389" y="1532" width="40" height="40" as="geometry"/>
                </mxCell>
                <mxCell id="310" value="m" style="whiteSpace=wrap;html=1;aspect=fixed;fontSize=15;fillColor=#f8cecc;strokeColor=#b85450;" parent="1" vertex="1">
                    <mxGeometry x="-349" y="1532" width="40" height="40" as="geometry"/>
                </mxCell>
                <mxCell id="311" value="n" style="whiteSpace=wrap;html=1;aspect=fixed;fontSize=15;fillColor=#f8cecc;strokeColor=#b85450;" parent="1" vertex="1">
                    <mxGeometry x="-309" y="1532" width="40" height="40" as="geometry"/>
                </mxCell>
                <mxCell id="312" value="o" style="whiteSpace=wrap;html=1;aspect=fixed;fontSize=15;fillColor=#f8cecc;strokeColor=#b85450;" parent="1" vertex="1">
                    <mxGeometry x="-269" y="1532" width="40" height="40" as="geometry"/>
                </mxCell>
                <mxCell id="313" value="p" style="whiteSpace=wrap;html=1;aspect=fixed;fontSize=15;fillColor=#f8cecc;strokeColor=#b85450;" parent="1" vertex="1">
                    <mxGeometry x="-229" y="1532" width="40" height="40" as="geometry"/>
                </mxCell>
                <mxCell id="314" value="" style="whiteSpace=wrap;html=1;aspect=fixed;fontSize=15;" parent="1" vertex="1">
                    <mxGeometry x="-189" y="1532" width="40" height="40" as="geometry"/>
                </mxCell>
                <mxCell id="321" value="..." style="rounded=0;whiteSpace=wrap;html=1;fontSize=15;" parent="1" vertex="1">
                    <mxGeometry x="-149" y="1532" width="120" height="40" as="geometry"/>
                </mxCell>
                <mxCell id="322" style="edgeStyle=none;html=1;exitX=0.5;exitY=1;exitDx=0;exitDy=0;entryX=0.5;entryY=0;entryDx=0;entryDy=0;fontSize=15;fontColor=#007FFF;strokeColor=#009900;" parent="1" source="323" edge="1">
                    <mxGeometry relative="1" as="geometry">
                        <mxPoint x="-809" y="1532" as="targetPoint"/>
                    </mxGeometry>
                </mxCell>
                <mxCell id="323" value="head" style="text;html=1;align=center;verticalAlign=middle;whiteSpace=wrap;rounded=0;fontSize=14;fontColor=#009900;" parent="1" vertex="1">
                    <mxGeometry x="-839" y="1472" width="60" height="30" as="geometry"/>
                </mxCell>
                <mxCell id="324" style="edgeStyle=none;html=1;exitX=0.5;exitY=0;exitDx=0;exitDy=0;entryX=0.5;entryY=1;entryDx=0;entryDy=0;strokeColor=#FF8000;fontSize=15;fontColor=#FF8000;" parent="1" edge="1">
                    <mxGeometry relative="1" as="geometry">
                        <mxPoint x="-169" y="1601.9999999999995" as="sourcePoint"/>
                        <mxPoint x="-169" y="1571.9999999999995" as="targetPoint"/>
                    </mxGeometry>
                </mxCell>
                <mxCell id="325" value="tail" style="text;html=1;align=center;verticalAlign=middle;whiteSpace=wrap;rounded=0;fontSize=14;fontColor=#FF8000;" parent="1" vertex="1">
                    <mxGeometry x="-199" y="1599" width="60" height="30" as="geometry"/>
                </mxCell>
                <mxCell id="326" value="添加元素 p, 数组满时扩容" style="rounded=0;whiteSpace=wrap;html=1;fontSize=15;fillColor=#dae8fc;strokeColor=#6c8ebf;" parent="1" vertex="1">
                    <mxGeometry x="-841" y="1193" width="188" height="40" as="geometry"/>
                </mxCell>
                <mxCell id="327" value="如何计算size?" style="rounded=0;whiteSpace=wrap;html=1;fontSize=15;fillColor=#dae8fc;strokeColor=#6c8ebf;" parent="1" vertex="1">
                    <mxGeometry x="-838" y="1662" width="130" height="40" as="geometry"/>
                </mxCell>
                <mxCell id="329" value="&lt;pre style=&quot;background-color: rgb(43, 43, 43); font-family: &amp;quot;JetBrains Mono&amp;quot;, monospace; font-size: 18px;&quot;&gt;&lt;span style=&quot;color: rgb(169, 183, 198);&quot;&gt; (&lt;span style=&quot;color: rgb(152, 118, 170); font-size: 18px;&quot;&gt;tail &lt;/span&gt;- &lt;span style=&quot;color: rgb(152, 118, 170); font-size: 18px;&quot;&gt;head&lt;/span&gt;) &amp;amp; (&lt;span style=&quot;color: rgb(152, 118, 170); font-size: 18px;&quot;&gt;elements&lt;/span&gt;.&lt;span style=&quot;color: rgb(152, 118, 170); font-size: 18px;&quot;&gt;length &lt;/span&gt;- &lt;span style=&quot;color: rgb(104, 151, 187); font-size: 18px;&quot;&gt;1&lt;/span&gt;)&lt;/span&gt;&lt;font color=&quot;#cc7832&quot;&gt; &lt;/font&gt;&lt;/pre&gt;" style="text;html=1;strokeColor=none;fillColor=none;align=center;verticalAlign=middle;whiteSpace=wrap;rounded=0;fontSize=18;fontColor=#FF66FF;" parent="1" vertex="1">
                    <mxGeometry x="-725" y="1722" width="450" height="30" as="geometry"/>
                </mxCell>
                <mxCell id="330" value="" style="line;strokeWidth=1;html=1;strokeColor=none;" parent="1" vertex="1">
                    <mxGeometry x="-834" y="1772" width="830" height="10" as="geometry"/>
                </mxCell>
                <mxCell id="331" value="" style="line;strokeWidth=1;html=1;" parent="1" vertex="1">
                    <mxGeometry x="-833" y="1629" width="830" height="10" as="geometry"/>
                </mxCell>
                <mxCell id="332" value="删除三个元素" style="rounded=0;whiteSpace=wrap;html=1;fontSize=15;fillColor=#dae8fc;strokeColor=#6c8ebf;" parent="1" vertex="1">
                    <mxGeometry x="-841" y="-170" width="111" height="40" as="geometry"/>
                </mxCell>
                <mxCell id="334" value="添加元素a ~ l" style="rounded=0;whiteSpace=wrap;html=1;fontSize=15;fillColor=#dae8fc;strokeColor=#6c8ebf;" parent="1" vertex="1">
                    <mxGeometry x="-841" y="380" width="112" height="40" as="geometry"/>
                </mxCell>
                <mxCell id="341" value="添加元素 m" style="rounded=0;whiteSpace=wrap;html=1;fontSize=15;fillColor=#dae8fc;strokeColor=#6c8ebf;" parent="1" vertex="1">
                    <mxGeometry x="-841" y="600" width="91" height="40" as="geometry"/>
                </mxCell>
                <mxCell id="347" value="" style="line;strokeWidth=1;html=1;" parent="1" vertex="1">
                    <mxGeometry x="-840" y="1170" width="830" height="10" as="geometry"/>
                </mxCell>
                <mxCell id="348" value="添加元素 n" style="rounded=0;whiteSpace=wrap;html=1;fontSize=15;fillColor=#dae8fc;strokeColor=#6c8ebf;" parent="1" vertex="1">
                    <mxGeometry x="-839" y="800" width="91" height="40" as="geometry"/>
                </mxCell>
                <mxCell id="349" value="添加元素 o" style="rounded=0;whiteSpace=wrap;html=1;fontSize=15;fillColor=#dae8fc;strokeColor=#6c8ebf;" parent="1" vertex="1">
                    <mxGeometry x="-840" y="984" width="91" height="40" as="geometry"/>
                </mxCell>
                <mxCell id="350" value="" style="line;strokeWidth=1;html=1;" parent="1" vertex="1">
                    <mxGeometry x="-841" y="967" width="830" height="10" as="geometry"/>
                </mxCell>
                <mxCell id="351" value="本图解中所有空白格子均为null&lt;br&gt;且删除元素时并未保留原值" style="text;html=1;strokeColor=none;fillColor=none;align=center;verticalAlign=middle;whiteSpace=wrap;rounded=0;fontSize=15;fontColor=#007FFF;" parent="1" vertex="1">
                    <mxGeometry x="-727" y="-170" width="237" height="40" as="geometry"/>
                </mxCell>
                <mxCell id="352" value="数组满时的 head=tail 只是一个中间态" style="text;html=1;strokeColor=none;fillColor=none;align=center;verticalAlign=middle;whiteSpace=wrap;rounded=0;fontSize=15;fontColor=#999999;" parent="1" vertex="1">
                    <mxGeometry x="-556" y="1247" width="266" height="40" as="geometry"/>
                </mxCell>
                <mxCell id="353" value="deque 两侧都可以进行插入和删除，这里只展示了右侧插入，左侧删除" style="text;html=1;strokeColor=none;fillColor=none;align=center;verticalAlign=middle;whiteSpace=wrap;rounded=0;fontSize=15;fontColor=#999999;" vertex="1" parent="1">
                    <mxGeometry x="-674.5" y="-1070" width="489" height="40" as="geometry"/>
                </mxCell>
            </root>
        </mxGraphModel>
    </diagram>
</mxfile>